<?xml version="1.0" encoding="UTF-8"?>
<!DOCTYPE svg PUBLIC "-//W3C//DTD SVG 1.1//EN" "http://www.w3.org/Graphics/SVG/1.1/DTD/svg11.dtd">
<svg xmlns="http://www.w3.org/2000/svg" version="1.1" width="268px" height="117px" style="shape-rendering:geometricPrecision; text-rendering:geometricPrecision; image-rendering:optimizeQuality; fill-rule:evenodd; clip-rule:evenodd" xmlns:xlink="http://www.w3.org/1999/xlink">
<g><path style="opacity:0.995" fill="#c47129" d="M 126.5,24.5 C 127.227,31.1583 127.893,37.825 128.5,44.5C 127.766,45.7079 127.433,47.0413 127.5,48.5C 127.813,52.0419 127.479,55.3752 126.5,58.5C 114.999,93.6093 90.6655,109.109 53.5,105C 38.7793,100.117 29.4459,90.2832 25.5,75.5C 25.5,74.8333 25.5,74.1667 25.5,73.5C 25.6663,66.1591 25.4997,58.8258 25,51.5C 21.3582,46.6909 17.1915,42.3576 12.5,38.5C 12.3342,33.8215 12.5008,29.1548 13,24.5C 13.5,24 14,23.5 14.5,23C 19.1667,22.6667 23.8333,22.3333 28.5,22C 29.8333,21.3333 31.1667,20.6667 32.5,20C 61.8333,19.3333 91.1667,19.3333 120.5,20C 122.684,21.3634 124.684,22.8634 126.5,24.5 Z M 111.5,44.5 C 111.5,46.1667 111.5,47.8333 111.5,49.5C 85.8333,49.5 60.1667,49.5 34.5,49.5C 34.5,46.1667 34.5,42.8333 34.5,39.5C 35.9147,34.9164 38.9147,31.7497 43.5,30C 62.1667,29.3333 80.8333,29.3333 99.5,30C 105.953,32.9402 109.953,37.7735 111.5,44.5 Z"/></g>
<g><path style="opacity:0.995" fill="#c47129" d="M 258.5,38.5 C 254.176,42.324 250.009,46.324 246,50.5C 245.505,52.4727 245.338,54.4727 245.5,56.5C 245.825,64.3516 245.492,72.0182 244.5,79.5C 239.493,92.6701 230.16,101.17 216.5,105C 183.606,109.062 160.273,96.2282 146.5,66.5C 146.41,62.7858 145.41,59.4525 143.5,56.5C 143.5,53.8333 143.5,51.1667 143.5,48.5C 143.67,47.1779 143.337,46.0113 142.5,45C 137.845,44.5008 133.179,44.3342 128.5,44.5C 127.893,37.825 127.227,31.1583 126.5,24.5C 132.509,24.6662 138.509,24.4995 144.5,24C 146.5,22.6667 148.5,21.3333 150.5,20C 179.833,19.3333 209.167,19.3333 238.5,20C 239.833,20.6667 241.167,21.3333 242.5,22C 247.167,22.3333 251.833,22.6667 256.5,23C 257.126,23.7504 257.626,24.5838 258,25.5C 258.499,29.8206 258.666,34.1539 258.5,38.5 Z M 236.5,39.5 C 236.5,42.8333 236.5,46.1667 236.5,49.5C 210.833,49.5 185.167,49.5 159.5,49.5C 159.5,47.5 159.5,45.5 159.5,43.5C 161.457,37.3657 165.457,32.8657 171.5,30C 190.167,29.3333 208.833,29.3333 227.5,30C 232.112,31.775 235.112,34.9417 236.5,39.5 Z"/></g>
<g><path style="opacity:0.652" fill="#563617" d="M 111.5,44.5 C 109.953,37.7735 105.953,32.9402 99.5,30C 80.8333,29.3333 62.1667,29.3333 43.5,30C 38.9147,31.7497 35.9147,34.9164 34.5,39.5C 34.6584,33.3689 37.6584,29.2022 43.5,27C 61.1667,26.3333 78.8333,26.3333 96.5,27C 106.038,29.0319 111.038,34.8652 111.5,44.5 Z"/></g>
<g><path style="opacity:0.653" fill="#563617" d="M 236.5,39.5 C 235.112,34.9417 232.112,31.775 227.5,30C 208.833,29.3333 190.167,29.3333 171.5,30C 165.457,32.8657 161.457,37.3657 159.5,43.5C 160.25,35.2431 164.583,29.7431 172.5,27C 190.167,26.3333 207.833,26.3333 225.5,27C 232.529,28.1965 236.196,32.3631 236.5,39.5 Z"/></g>
<g><path style="opacity:0.692" fill="#583717" d="M 258.5,38.5 C 256.292,43.5469 252.792,47.5469 248,50.5C 247.155,52.6115 246.322,54.6115 245.5,56.5C 245.338,54.4727 245.505,52.4727 246,50.5C 250.009,46.324 254.176,42.324 258.5,38.5 Z"/></g>
<g><path style="opacity:0.676" fill="#643e19" d="M 12.5,38.5 C 17.1915,42.3576 21.3582,46.6909 25,51.5C 25.4997,58.8258 25.6663,66.1591 25.5,73.5C 24.6715,66.6787 24.1715,59.6787 24,52.5C 20.8712,48.8384 17.3712,45.5051 13.5,42.5C 12.7542,41.2638 12.4208,39.9305 12.5,38.5 Z"/></g>
<g><path style="opacity:0.785" fill="#4e3216" d="M 128.5,44.5 C 133.179,44.3342 137.845,44.5008 142.5,45C 143.337,46.0113 143.67,47.1779 143.5,48.5C 138.167,45.8333 132.833,45.8333 127.5,48.5C 127.433,47.0413 127.766,45.7079 128.5,44.5 Z"/></g>
<g><path style="opacity:0.105" fill="#fefefe" d="M 34.5,49.5 C 60.1667,49.5 85.8333,49.5 111.5,49.5C 111.8,79.1997 97.1337,93.8663 67.5,93.5C 51.9992,94.5093 41.4992,87.8427 36,73.5C 34.6785,65.5607 34.1785,57.5607 34.5,49.5 Z"/></g>
<g><path style="opacity:0.105" fill="#fefefe" d="M 159.5,49.5 C 185.167,49.5 210.833,49.5 236.5,49.5C 236.666,55.5092 236.499,61.5092 236,67.5C 232.181,86.1328 220.681,94.7995 201.5,93.5C 172.887,92.8851 158.887,78.2184 159.5,49.5 Z"/></g>
<g><path style="opacity:0.925" fill="#69401a" d="M 143.5,56.5 C 145.41,59.4525 146.41,62.7858 146.5,66.5C 144.899,63.4498 143.899,60.1165 143.5,56.5 Z"/></g>
<g><path style="opacity:0.725" fill="#553517" d="M 126.5,58.5 C 123.381,76.4649 114.048,90.2983 98.5,100C 80.2506,109.891 61.584,110.891 42.5,103C 32.4839,96.4915 26.8172,87.3248 25.5,75.5C 29.4459,90.2832 38.7793,100.117 53.5,105C 90.6655,109.109 114.999,93.6093 126.5,58.5 Z"/></g>
<g><path style="opacity:0.727" fill="#543517" d="M 146.5,66.5 C 160.273,96.2282 183.606,109.062 216.5,105C 230.16,101.17 239.493,92.6701 244.5,79.5C 240.461,95.7012 230.127,105.201 213.5,108C 186.596,110.628 165.762,100.794 151,78.5C 148.646,74.797 147.146,70.797 146.5,66.5 Z"/></g>
</svg>
